<svg id="visual" viewBox="0 0 960 300" width="960" height="300" xmlns="http://www.w3.org/2000/svg" xmlns:xlink="http://www.w3.org/1999/xlink" version="1.1"><rect x="0" y="0" width="960" height="300" fill="#202731"></rect><path d="M0 71L11.5 71.7C23 72.3 46 73.7 68.8 70.5C91.7 67.3 114.3 59.7 137.2 59.8C160 60 183 68 205.8 69.7C228.7 71.3 251.3 66.7 274.2 68.2C297 69.7 320 77.3 342.8 80.3C365.7 83.3 388.3 81.7 411.2 74C434 66.3 457 52.7 480 53.8C503 55 526 71 548.8 80.7C571.7 90.3 594.3 93.7 617.2 91.3C640 89 663 81 685.8 72.7C708.7 64.3 731.3 55.7 754.2 56.5C777 57.3 800 67.7 822.8 70.3C845.7 73 868.3 68 891.2 68.7C914 69.3 937 75.7 948.5 78.8L960 82L960 0L948.5 0C937 0 914 0 891.2 0C868.3 0 845.7 0 822.8 0C800 0 777 0 754.2 0C731.3 0 708.7 0 685.8 0C663 0 640 0 617.2 0C594.3 0 571.7 0 548.8 0C526 0 503 0 480 0C457 0 434 0 411.2 0C388.3 0 365.7 0 342.8 0C320 0 297 0 274.2 0C251.3 0 228.7 0 205.8 0C183 0 160 0 137.2 0C114.3 0 91.7 0 68.8 0C46 0 23 0 11.5 0L0 0Z" fill="#dd3f31"></path><path d="M0 64L11.5 59.7C23 55.3 46 46.7 68.8 46.3C91.7 46 114.3 54 137.2 53.3C160 52.7 183 43.3 205.8 44.2C228.7 45 251.3 56 274.2 63.2C297 70.3 320 73.7 342.8 68.2C365.7 62.7 388.3 48.3 411.2 44.8C434 41.3 457 48.7 480 48.3C503 48 526 40 548.8 41.2C571.7 42.3 594.3 52.7 617.2 56.5C640 60.3 663 57.7 685.8 57.5C708.7 57.3 731.3 59.7 754.2 58C777 56.3 800 50.7 822.8 52.2C845.7 53.7 868.3 62.3 891.2 68.3C914 74.3 937 77.7 948.5 79.3L960 81L960 0L948.5 0C937 0 914 0 891.2 0C868.3 0 845.7 0 822.8 0C800 0 777 0 754.2 0C731.3 0 708.7 0 685.8 0C663 0 640 0 617.2 0C594.3 0 571.7 0 548.8 0C526 0 503 0 480 0C457 0 434 0 411.2 0C388.3 0 365.7 0 342.8 0C320 0 297 0 274.2 0C251.3 0 228.7 0 205.8 0C183 0 160 0 137.2 0C114.3 0 91.7 0 68.8 0C46 0 23 0 11.5 0L0 0Z" fill="#f25e4f"></path><path d="M0 58L11.5 52.8C23 47.7 46 37.3 68.8 36.2C91.7 35 114.3 43 137.2 46.3C160 49.7 183 48.3 205.8 49.8C228.7 51.3 251.3 55.7 274.2 56.5C297 57.3 320 54.7 342.8 51.5C365.7 48.3 388.3 44.7 411.2 42.7C434 40.7 457 40.3 480 43.3C503 46.3 526 52.7 548.8 50.2C571.7 47.7 594.3 36.3 617.2 33.3C640 30.3 663 35.7 685.8 37.5C708.7 39.3 731.3 37.7 754.2 41.2C777 44.7 800 53.3 822.8 51.7C845.7 50 868.3 38 891.2 35.5C914 33 937 40 948.5 43.5L960 47L960 0L948.5 0C937 0 914 0 891.2 0C868.3 0 845.7 0 822.8 0C800 0 777 0 754.2 0C731.3 0 708.7 0 685.8 0C663 0 640 0 617.2 0C594.3 0 571.7 0 548.8 0C526 0 503 0 480 0C457 0 434 0 411.2 0C388.3 0 365.7 0 342.8 0C320 0 297 0 274.2 0C251.3 0 228.7 0 205.8 0C183 0 160 0 137.2 0C114.3 0 91.7 0 68.8 0C46 0 23 0 11.5 0L0 0Z" fill="#ff6f61"></path><path d="M0 19L11.5 20.8C23 22.7 46 26.3 68.8 27C91.7 27.7 114.3 25.3 137.2 23.7C160 22 183 21 205.8 19.5C228.7 18 251.3 16 274.2 16.3C297 16.7 320 19.3 342.8 24.8C365.7 30.3 388.3 38.7 411.2 37.8C434 37 457 27 480 24.3C503 21.7 526 26.3 548.8 26.3C571.7 26.3 594.3 21.7 617.2 24.3C640 27 663 37 685.8 39.8C708.7 42.7 731.3 38.3 754.2 37C777 35.7 800 37.3 822.8 38.8C845.7 40.3 868.3 41.7 891.2 40C914 38.3 937 33.7 948.5 31.3L960 29L960 0L948.5 0C937 0 914 0 891.2 0C868.3 0 845.7 0 822.8 0C800 0 777 0 754.2 0C731.3 0 708.7 0 685.8 0C663 0 640 0 617.2 0C594.3 0 571.7 0 548.8 0C526 0 503 0 480 0C457 0 434 0 411.2 0C388.3 0 365.7 0 342.8 0C320 0 297 0 274.2 0C251.3 0 228.7 0 205.8 0C183 0 160 0 137.2 0C114.3 0 91.7 0 68.8 0C46 0 23 0 11.5 0L0 0Z" fill="#f25e4f"></path><path d="M0 31L11.5 29.5C23 28 46 25 68.8 23.7C91.7 22.3 114.3 22.7 137.2 20.7C160 18.7 183 14.3 205.8 11.7C228.7 9 251.3 8 274.2 9.8C297 11.7 320 16.3 342.8 16.7C365.7 17 388.3 13 411.2 10.8C434 8.7 457 8.3 480 11.2C503 14 526 20 548.8 22.8C571.7 25.7 594.3 25.3 617.2 22.7C640 20 663 15 685.8 13.5C708.7 12 731.3 14 754.2 15.8C777 17.7 800 19.3 822.8 18.7C845.7 18 868.3 15 891.2 14.7C914 14.3 937 16.7 948.5 17.8L960 19L960 0L948.5 0C937 0 914 0 891.2 0C868.3 0 845.7 0 822.8 0C800 0 777 0 754.2 0C731.3 0 708.7 0 685.8 0C663 0 640 0 617.2 0C594.3 0 571.7 0 548.8 0C526 0 503 0 480 0C457 0 434 0 411.2 0C388.3 0 365.7 0 342.8 0C320 0 297 0 274.2 0C251.3 0 228.7 0 205.8 0C183 0 160 0 137.2 0C114.3 0 91.7 0 68.8 0C46 0 23 0 11.5 0L0 0Z" fill="#dd3f31"></path></svg>